<?xml version="1.0" standalone="yes"?>

<svg version="1.1" viewBox="0.0 0.0 960.0 720.0" fill="none" stroke="none" stroke-linecap="square" stroke-miterlimit="10" xmlns="http://www.w3.org/2000/svg" xmlns:xlink="http://www.w3.org/1999/xlink"><clipPath id="p.0"><path d="m0 0l960.0 0l0 720.0l-960.0 0l0 -720.0z" clip-rule="nonzero"></path></clipPath><g clip-path="url(#p.0)"><path fill="#000000" fill-opacity="0.0" d="m0 0l960.0 0l0 720.0l-960.0 0z" fill-rule="evenodd"></path><path fill="#cccccc" d="m83.37008 274.80045l106.28213 -147.55365l184.06566 -85.199554l212.56424 0l184.06567 85.199554l106.282166 147.55365l0 170.39911l-106.282166 147.55362l-184.06567 85.199585l-212.56424 0l-184.06566 -85.199585l-106.28213 -147.55362z" fill-rule="evenodd"></path><path stroke="#434343" stroke-width="1.0" stroke-linejoin="round" stroke-linecap="butt" d="m83.37008 274.80045l106.28213 -147.55365l184.06566 -85.199554l212.56424 0l184.06567 85.199554l106.282166 147.55365l0 170.39911l-106.282166 147.55362l-184.06567 85.199585l-212.56424 0l-184.06566 -85.199585l-106.28213 -147.55362z" fill-rule="evenodd"></path><path fill="#434343" d="m131.07086 279.69128l93.50009 -139.08336l161.92896 -80.308716l187.00015 0l161.92902 80.308716l93.50006 139.08336l0 160.61743l-93.50006 139.08337l-161.92902 80.308716l-187.00015 0l-161.92896 -80.308716l-93.50009 -139.08337z" fill-rule="evenodd"></path><path stroke="#434343" stroke-width="1.0" stroke-linejoin="round" stroke-linecap="butt" d="m131.07086 279.69128l93.50009 -139.08336l161.92896 -80.308716l187.00015 0l161.92902 80.308716l93.50006 139.08336l0 160.61743l-93.50006 139.08337l-161.92902 80.308716l-187.00015 0l-161.92896 -80.308716l-93.50009 -139.08337z" fill-rule="evenodd"></path><path fill="#666666" d="m251.15224 237.48032l114.31496 0l0 0c63.1344 0 114.31497 42.078186 114.31497 93.98425c0 51.906067 -51.180573 93.98425 -114.31497 93.98425l-114.31496 0z" fill-rule="evenodd"></path><path fill="#666666" d="m519.78217 300.2861l241.00787 0l-77.803406 80.335144l-82.86932 0l0 85.56595l-80.335144 82.94928z" fill-rule="evenodd"></path><path fill="#666666" d="m519.78217 300.2861l-263.40158 0l87.79965 82.94928l92.65262 0l0 87.53421l82.94931 78.36688z" fill-rule="evenodd"></path><path fill="#efefef" d="m296.08136 257.57498l200.01685 68.94586l-200.04834 79.337585z" fill-rule="evenodd"></path><path fill="#efefef" d="m519.7808 308.57086l-160.18896 0l38.57544 53.395782l68.21774 0l0 94.42648l53.395782 73.910034z" fill-rule="evenodd"></path><path fill="#efefef" d="m519.78345 308.57086l169.32281 0l-43.099915 56.4404l-69.78253 0l0 91.38187l-56.44037 73.910034z" fill-rule="evenodd"></path><path fill="#434343" d="m326.79266 362.03412l0 -61.141724l44.275574 12.2283325l0 36.68506z" fill-rule="evenodd"></path><path stroke="#434343" stroke-width="1.0" stroke-linejoin="round" stroke-linecap="butt" d="m326.79266 362.03412l0 -61.141724l44.275574 12.2283325l0 36.68506z" fill-rule="evenodd"></path><path fill="#434343" d="m425.88452 321.5223l200.06299 0l0 23.181091l-200.06299 0z" fill-rule="evenodd"></path><path stroke="#434343" stroke-width="1.0" stroke-linejoin="round" stroke-linecap="butt" d="m425.88452 321.5223l200.06299 0l0 23.181091l-200.06299 0z" fill-rule="evenodd"></path><path fill="#434343" d="m557.4278 335.2152l0 111.74805l-63.02359 0l0 -111.74805z" fill-rule="evenodd"></path><path stroke="#434343" stroke-width="1.0" stroke-linejoin="round" stroke-linecap="butt" d="m557.4278 335.2152l0 111.74805l-63.02359 0l0 -111.74805z" fill-rule="evenodd"></path><path fill="#434343" d="m494.4042 446.96326l63.02359 0l-31.51178 50.606293z" fill-rule="evenodd"></path><path stroke="#434343" stroke-width="1.0" stroke-linejoin="round" stroke-linecap="butt" d="m494.4042 446.96326l63.02359 0l-31.51178 50.606293z" fill-rule="evenodd"></path></g></svg>

